<svg xmlns="http://www.w3.org/2000/svg" xmlns:xlink="http://www.w3.org/1999/xlink" width="1440" zoomAndPan="magnify" viewBox="0 0 1080 1079.999946" height="1440" preserveAspectRatio="xMidYMid meet" version="1.0"><path fill="#92278f" d="M 620.277344 382.839844 C 589.316406 468.734375 661.730469 505.941406 709.421875 437.523438 C 733.144531 403.3125 715.414062 397.820312 713.167969 383.835938 C 726.652344 372.351562 718.160156 390.578125 731.644531 365.109375 C 743.628906 370.851562 737.886719 374.597656 762.855469 351.625 C 842.761719 277.214844 783.082031 285.953125 825.53125 263.980469 C 853.996094 249.5 847.753906 244.253906 855.496094 231.769531 C 855.996094 231.269531 856.742188 230.769531 857.242188 230.273438 C 857.242188 229.773438 858.242188 228.523438 858.242188 228.273438 C 879.464844 201.804688 884.210938 111.664062 865.484375 96.183594 C 854.996094 87.941406 835.019531 96.183594 823.535156 99.929688 C 800.8125 107.667969 797.066406 129.890625 781.585938 144.875 C 776.839844 149.617188 774.84375 146.871094 771.597656 164.601562 C 770.097656 172.839844 766.851562 182.828125 766.601562 187.824219 C 764.855469 198.808594 768.101562 205.550781 766.601562 215.789062 C 763.605469 223.78125 761.859375 219.535156 755.117188 222.78125 C 722.90625 238.761719 715.664062 256.488281 702.179688 301.9375 C 682.703125 366.109375 689.445312 317.917969 636.007812 358.867188 C 628.019531 364.859375 630.265625 355.871094 620.277344 382.839844 Z M 620.277344 382.839844 " fill-opacity="1" fill-rule="evenodd"/><path fill="#0c98bc" d="M 798.5625 490.957031 C 773.59375 474.476562 787.078125 476.476562 778.835938 464.738281 C 766.351562 470.484375 772.097656 470.734375 760.109375 479.722656 C 764.355469 457.25 773.59375 464.738281 775.839844 452.753906 C 767.851562 459.496094 716.914062 463.242188 736.886719 528.414062 C 745.128906 554.632812 739.882812 549.636719 753.367188 568.363281 C 761.609375 579.851562 755.367188 573.359375 758.613281 586.59375 L 773.09375 589.089844 C 787.078125 592.335938 793.320312 589.589844 807.804688 572.109375 C 838.265625 534.40625 823.535156 543.144531 820.289062 520.921875 C 835.019531 523.667969 816.292969 519.425781 828.527344 524.667969 C 847.253906 532.410156 851.25 518.675781 873.222656 506.441406 C 891.453125 495.953125 900.191406 480.222656 913.175781 462.492188 C 926.910156 442.765625 919.917969 447.511719 914.175781 424.539062 C 923.664062 426.535156 924.664062 429.28125 930.65625 433.527344 C 985.339844 405.0625 945.386719 426.285156 980.84375 401.316406 C 1001.070312 386.832031 1022.292969 380.589844 1012.058594 354.621094 C 1004.816406 335.894531 1011.558594 328.152344 998.074219 308.429688 C 990.832031 297.941406 994.078125 302.433594 986.339844 298.691406 C 963.617188 288.953125 977.347656 289.949219 964.613281 279.960938 C 953.128906 271.222656 946.386719 281.710938 933.402344 283.207031 C 930.65625 279.460938 937.398438 277.964844 925.660156 275.96875 C 885.210938 356.871094 884.710938 315.917969 887.457031 367.105469 C 855.746094 360.367188 851 390.328125 834.019531 391.328125 L 828.777344 391.328125 L 827.777344 391.828125 C 826.03125 392.828125 825.78125 393.574219 825.78125 395.824219 C 824.035156 415.550781 841.261719 387.082031 815.292969 428.035156 L 803.308594 446.761719 C 802.808594 447.261719 801.808594 447.761719 801.808594 448.257812 C 794.070312 458.246094 796.566406 456.5 797.816406 463.242188 C 823.785156 444.015625 809.550781 446.261719 822.035156 435.773438 C 844.757812 458.496094 805.554688 466.238281 821.535156 489.710938 L 807.804688 483.46875 C 807.304688 482.96875 806.804688 482.46875 805.804688 481.96875 C 801.558594 489.960938 805.304688 486.464844 798.5625 490.957031 Z M 798.5625 490.957031 " fill-opacity="1" fill-rule="evenodd"/><path fill="#00a652" d="M 966.613281 650.265625 C 950.632812 698.210938 936.148438 689.46875 896.195312 706.699219 C 880.214844 713.441406 882.464844 716.4375 870.976562 722.679688 C 852.25 732.417969 822.285156 726.675781 798.5625 736.164062 C 801.558594 766.625 803.558594 756.390625 815.042969 771.871094 C 804.558594 781.859375 783.832031 799.335938 788.574219 815.316406 C 798.066406 809.324219 795.816406 808.078125 799.0625 799.835938 L 817.292969 802.582031 C 817.789062 795.59375 819.039062 789.847656 824.53125 783.855469 C 830.277344 778.113281 845.757812 776.613281 858.242188 771.371094 C 860.988281 759.882812 859.988281 759.386719 865.984375 752.144531 C 886.457031 759.386719 872.726562 773.367188 910.179688 760.882812 C 931.652344 754.140625 943.890625 754.640625 953.628906 737.160156 C 978.347656 741.90625 990.832031 752.644531 1023.042969 740.160156 C 1042.269531 732.417969 1070.238281 707.945312 1070.738281 689.46875 C 1071.234375 681.730469 1069.238281 686.472656 1068.738281 673.488281 C 1068.238281 661.753906 1079.726562 622.800781 1050.511719 617.554688 C 1015.804688 611.5625 1012.308594 615.558594 986.339844 629.042969 C 968.859375 637.53125 972.105469 634.535156 966.613281 650.265625 Z M 966.613281 650.265625 " fill-opacity="1" fill-rule="evenodd"/><path fill="#ff99cc" d="M 163.828125 528.914062 C 183.054688 507.1875 197.039062 478.722656 190.796875 446.761719 C 187.796875 431.03125 193.542969 415.050781 188.046875 404.3125 C 186.050781 399.320312 180.308594 394.574219 176.5625 386.085938 C 157.335938 347.132812 164.078125 361.363281 134.613281 336.894531 L 92.664062 308.429688 C 89.667969 307.429688 90.664062 307.929688 86.671875 306.429688 C 67.941406 300.6875 78.929688 301.6875 66.445312 296.691406 C 33.734375 283.207031 12.507812 320.414062 6.265625 341.636719 C 0.273438 361.863281 4.769531 369.855469 11.511719 388.832031 C 19.25 411.054688 12.507812 416.796875 26.992188 437.523438 C 40.976562 457.75 47.21875 455.75 56.457031 466.988281 C 72.4375 485.714844 63.699219 495.953125 72.1875 507.1875 C 74.183594 510.433594 76.683594 511.933594 78.929688 513.429688 L 87.167969 520.671875 C 107.644531 540.398438 85.671875 527.914062 113.636719 544.144531 C 117.632812 546.140625 115.636719 545.144531 118.882812 547.890625 C 119.378906 547.890625 123.375 551.886719 127.621094 554.632812 C 134.363281 558.625 130.367188 556.628906 138.359375 559.625 L 151.34375 544.144531 L 152.339844 542.394531 L 156.335938 537.402344 C 159.832031 533.65625 160.332031 532.65625 163.828125 528.914062 Z M 163.828125 528.914062 " fill-opacity="1" fill-rule="evenodd"/><path fill="#ff4221" d="M 425.011719 412.550781 C 437 431.03125 459.222656 434.277344 491.683594 422.289062 C 506.664062 405.3125 521.148438 399.566406 536.378906 379.34375 C 558.851562 348.128906 548.363281 350.128906 543.121094 309.425781 C 539.375 283.457031 571.585938 248.25 582.574219 224.027344 C 592.8125 201.304688 585.070312 206.300781 586.070312 190.820312 C 600.054688 179.332031 605.796875 177.335938 615.285156 160.605469 C 625.773438 143.125 629.765625 119.65625 628.769531 99.429688 C 628.769531 98.429688 629.265625 94.683594 629.265625 93.6875 C 628.269531 82.949219 622.027344 80.953125 615.535156 72.460938 L 605.296875 56.980469 C 594.808594 40.5 603.546875 52.484375 589.316406 41.5 C 578.828125 45.492188 588.316406 42 577.828125 48.738281 L 540.875 76.207031 C 533.632812 73.460938 530.136719 69.214844 524.894531 73.960938 C 515.15625 82.949219 525.390625 93.6875 527.640625 99.929688 C 531.386719 113.660156 530.386719 102.925781 527.640625 109.167969 C 521.898438 121.152344 520.898438 112.914062 516.652344 111.914062 L 511.160156 124.398438 C 512.65625 124.398438 516.152344 121.652344 516.652344 121.652344 C 524.644531 119.65625 525.640625 121.652344 529.636719 126.894531 C 529.136719 126.894531 527.890625 126.398438 527.890625 126.894531 C 526.390625 135.636719 523.894531 114.410156 513.40625 138.382812 L 533.632812 142.128906 C 527.890625 159.605469 532.632812 153.613281 522.894531 154.863281 C 517.902344 155.363281 517.152344 154.863281 514.65625 154.863281 C 501.921875 155.363281 496.425781 156.609375 494.179688 175.335938 L 501.421875 174.089844 C 501.921875 173.589844 503.167969 174.089844 503.167969 174.089844 C 503.667969 174.089844 504.667969 173.589844 505.167969 174.089844 C 496.925781 192.816406 485.941406 208.296875 482.445312 231.769531 L 477.699219 272.722656 C 444.488281 284.207031 436.25 294.445312 428.007812 325.40625 C 421.269531 348.628906 413.527344 389.582031 425.011719 412.550781 Z M 425.011719 412.550781 " fill-opacity="1" fill-rule="evenodd"/><path fill="#ffbc49" d="M 305.90625 556.378906 C 297.167969 553.382812 271.699219 535.65625 260.210938 536.652344 C 228.75 523.917969 235.992188 578.601562 187.050781 544.894531 C 167.824219 531.410156 158.582031 567.617188 144.101562 580.101562 C 207.523438 679.980469 117.632812 779.609375 225.003906 946.660156 L 213.519531 947.160156 C 224.003906 957.898438 218.761719 961.640625 234.242188 962.140625 C 247.726562 963.140625 254.46875 966.136719 268.949219 967.136719 C 274.695312 977.625 261.710938 968.882812 275.691406 977.125 L 246.726562 978.121094 C 255.46875 984.863281 256.464844 983.867188 266.453125 987.363281 L 277.941406 994.101562 C 291.425781 1008.085938 289.425781 997.847656 310.902344 1002.09375 C 329.128906 1005.089844 310.902344 1002.09375 331.625 999.347656 C 335.371094 1013.332031 335.871094 1014.828125 345.109375 1024.816406 C 368.582031 1020.070312 377.320312 1008.085938 398.546875 1015.328125 C 581.074219 1080 899.691406 745.402344 647.246094 516.925781 C 646.246094 516.925781 644.5 516.925781 641.003906 515.429688 C 638.007812 514.179688 635.011719 511.183594 631.515625 507.4375 C 619.777344 504.441406 610.289062 510.683594 598.304688 507.4375 C 584.570312 471.230469 536.878906 489.960938 532.132812 486.214844 C 425.011719 412.550781 307.40625 556.878906 305.90625 556.378906 Z M 305.90625 556.378906 " fill-opacity="1" fill-rule="evenodd"/></svg>